<svg width="652" height="671" viewBox="0 0 652 671" fill="none" xmlns="http://www.w3.org/2000/svg">
<path d="M486.658 117.171L482.64 113.083L486.72 109.067C487.612 108.189 487.625 106.754 486.747 105.861C485.871 104.97 484.435 104.958 483.543 105.836L479.463 109.852L475.447 105.767C474.57 104.875 473.133 104.865 472.242 105.741C471.35 106.62 471.339 108.055 472.216 108.947L476.232 113.032L472.147 117.052C471.255 117.93 471.244 119.365 472.121 120.256C472.998 121.149 474.433 121.161 475.326 120.282L479.409 116.263L483.428 120.351C484.304 121.244 485.739 121.256 486.632 120.378C487.521 119.503 487.535 118.063 486.658 117.171Z" fill="white"/>
<path d="M519.63 240.975L517.322 236.394L521.896 234.086C522.896 233.581 523.298 232.361 522.794 231.361C522.291 230.362 521.071 229.959 520.07 230.464L515.497 232.772L513.19 228.195C512.686 227.195 511.462 226.794 510.465 227.297C509.465 227.801 509.064 229.022 509.568 230.022L511.875 234.599L507.296 236.91C506.296 237.415 505.895 238.635 506.399 239.634C506.903 240.634 508.122 241.036 509.121 240.532L513.7 238.221L516.009 242.803C516.512 243.803 517.731 244.206 518.731 243.701C519.728 243.198 520.134 241.975 519.63 240.975Z" fill="white"/>
<path d="M214.226 83.7436L210.63 80.0855L214.282 76.491C215.081 75.7051 215.091 74.4205 214.306 73.6215C213.522 72.8238 212.237 72.8123 211.438 73.5983L207.786 77.1928L204.192 73.5373C203.408 72.7392 202.122 72.7299 201.325 73.5137C200.527 74.2997 200.517 75.5847 201.301 76.3828L204.895 80.0383L201.239 83.6362C200.441 84.4218 200.432 85.7063 201.217 86.504C202.002 87.303 203.286 87.3136 204.085 86.5276L207.739 82.931L211.335 86.5891C212.119 87.3873 213.404 87.3978 214.202 86.6118C214.998 85.8289 215.011 84.5413 214.226 83.7436Z" fill="white"/>
<path d="M146.352 318.649L147.326 313.613L152.356 314.588C153.456 314.801 154.519 314.081 154.732 312.982C154.944 311.883 154.227 310.818 153.127 310.605L148.097 309.63L149.07 304.597C149.283 303.498 148.561 302.432 147.464 302.219C146.364 302.006 145.301 302.727 145.088 303.825L144.115 308.858L139.08 307.883C137.98 307.669 136.917 308.39 136.705 309.488C136.492 310.588 137.211 311.653 138.311 311.866L143.344 312.841L142.37 317.878C142.156 318.977 142.875 320.043 143.974 320.256C145.07 320.468 146.139 319.749 146.352 318.649Z" fill="white"/>
<path d="M615.976 287.886L613.76 283.259L618.38 281.043C619.39 280.558 619.817 279.346 619.333 278.336C618.85 277.328 617.638 276.901 616.629 277.385L612.008 279.601L609.794 274.977C609.31 273.967 608.095 273.542 607.088 274.025C606.077 274.51 605.652 275.721 606.136 276.732L608.351 281.355L603.726 283.573C602.716 284.058 602.291 285.27 602.774 286.278C603.258 287.288 604.47 287.714 605.479 287.23L610.102 285.013L612.319 289.64C612.802 290.65 614.013 291.077 615.023 290.593C616.03 290.11 616.46 288.895 615.976 287.886Z" fill="white"/>
<path d="M37.2917 264.066L37.5173 258.94L42.6354 259.165C43.7545 259.214 44.7014 258.347 44.7507 257.228C44.7999 256.11 43.9329 255.161 42.8137 255.112L37.6957 254.887L37.9212 249.764C37.9704 248.646 37.1009 247.697 35.9843 247.648C34.8658 247.598 33.92 248.467 33.8708 249.586L33.6454 254.708L28.5224 254.482C27.4032 254.433 26.4569 255.302 26.4077 256.42C26.3584 257.539 27.2261 258.486 28.3446 258.535L33.467 258.761L33.2413 263.887C33.1909 265.006 34.0579 265.954 35.1764 266.004C36.2918 266.053 37.2425 265.184 37.2917 264.066Z" fill="white"/>
<path d="M79.9273 358.359L78.4325 353.452L83.3334 351.956C84.4045 351.63 85.009 350.496 84.6826 349.424C84.3564 348.353 83.2224 347.749 82.1513 348.076L77.2504 349.571L75.7568 344.668C75.4306 343.597 74.2941 342.993 73.2254 343.319C72.1544 343.646 71.552 344.781 71.8782 345.852L73.3718 350.755L68.4655 352.252C67.3945 352.579 66.7915 353.714 67.1177 354.784C67.444 355.856 68.5772 356.459 69.6494 356.132L74.5539 354.636L76.0488 359.543C76.3732 360.614 77.5072 361.219 78.5783 360.892C79.6458 360.566 80.2535 359.43 79.9273 358.359Z" fill="white"/>
<path d="M121.139 216.463L119.39 211.64L124.207 209.892C125.259 209.51 125.803 208.345 125.422 207.292C125.041 206.241 123.877 205.696 122.824 206.078L118.008 207.827L116.261 203.008C115.879 201.956 114.713 201.412 113.663 201.793C112.609 202.175 112.067 203.34 112.448 204.392L114.195 209.211L109.374 210.961C108.321 211.343 107.779 212.508 108.16 213.559C108.542 214.612 109.705 215.157 110.758 214.774L115.578 213.024L117.326 217.847C117.707 218.9 118.87 219.445 119.923 219.063C120.973 218.682 121.52 217.515 121.139 216.463Z" fill="white"/>
<path d="M42.3254 413.762C43.5772 415.473 43.2065 417.878 41.4958 419.132C39.7857 420.384 37.382 420.013 36.1301 418.302C34.877 416.589 35.2496 414.186 36.9597 412.932C38.6711 411.679 41.0723 412.05 42.3254 413.762Z" fill="white"/>
<path d="M76.5051 370.677C77.7576 372.388 77.385 374.793 75.6749 376.045C73.9635 377.299 71.5617 376.925 70.3092 375.214C69.0568 373.502 69.4287 371.1 71.1401 369.846C72.8502 368.593 75.2526 368.964 76.5051 370.677Z" fill="white"/>
<path d="M70.9319 420.413C71.7168 421.486 71.4833 422.992 70.4122 423.777C69.3404 424.562 67.8352 424.33 67.0504 423.258C66.2655 422.185 66.4983 420.679 67.5701 419.893C68.6419 419.107 70.1471 419.341 70.9319 420.413Z" fill="white"/>
<path d="M160.552 220.634C160.552 221.963 159.475 223.041 158.147 223.041C156.818 223.041 155.741 221.964 155.741 220.635C155.741 219.305 156.818 218.227 158.147 218.227C159.475 218.227 160.552 219.305 160.552 220.634Z" fill="white"/>
<path d="M69.2742 309.062C69.2742 311.183 67.5542 312.904 65.4349 312.904C63.3143 312.904 61.5961 311.183 61.5961 309.062C61.5961 306.94 63.3143 305.221 65.4349 305.221C67.5542 305.221 69.2742 306.94 69.2742 309.062Z" fill="white"/>
<path d="M142.605 175.809C142.605 177.929 140.887 179.65 138.765 179.65C136.646 179.65 134.927 177.929 134.927 175.809C134.927 173.687 136.646 171.969 138.765 171.969C140.887 171.969 142.605 173.687 142.605 175.809Z" fill="white"/>
<path d="M199.8 191.446C199.8 193.567 198.08 195.288 195.961 195.288C193.84 195.288 192.121 193.567 192.121 191.446C192.121 189.324 193.84 187.606 195.961 187.606C198.08 187.606 199.8 189.324 199.8 191.446Z" fill="white"/>
<path d="M548.04 179.602C545.975 180.079 543.913 178.792 543.436 176.725C542.958 174.658 544.247 172.594 546.312 172.117C548.379 171.639 550.44 172.928 550.917 174.995C551.394 177.063 550.107 179.124 548.04 179.602Z" fill="white"/>
<path d="M563.256 223.35C561.191 223.828 559.129 222.538 558.652 220.473C558.174 218.405 559.463 216.342 561.528 215.864C563.595 215.387 565.655 216.675 566.133 218.743C566.61 220.809 565.323 222.872 563.256 223.35Z" fill="white"/>
<path d="M531.25 182.896C529.955 183.195 528.663 182.387 528.365 181.093C528.065 179.797 528.873 178.505 530.167 178.206C531.462 177.906 532.754 178.714 533.053 180.009C533.352 181.303 532.545 182.597 531.25 182.896Z" fill="white"/>
<path d="M571.348 368.091C570.053 368.389 568.761 367.582 568.463 366.288C568.164 364.993 568.97 363.699 570.266 363.4C571.56 363.101 572.852 363.909 573.151 365.204C573.45 366.499 572.643 367.792 571.348 368.091Z" fill="white"/>
<path d="M594.185 397.452C592.121 397.929 590.058 396.64 589.581 394.574C589.104 392.506 590.393 390.444 592.457 389.967C594.524 389.489 596.585 390.777 597.062 392.844C597.539 394.911 596.252 396.974 594.185 397.452Z" fill="white"/>
<path d="M590.648 345.781C588.583 346.258 586.521 344.969 586.043 342.902C585.566 340.836 586.855 338.772 588.919 338.295C590.986 337.818 593.047 339.107 593.524 341.173C594.001 343.241 592.714 345.302 590.648 345.781Z" fill="white"/>
<path d="M295.626 78.0688C295.626 80.1893 293.908 81.9102 291.787 81.9102C289.668 81.9102 287.948 80.1893 287.948 78.0688C287.948 75.9464 289.668 74.2273 291.787 74.2273C293.908 74.2273 295.626 75.9464 295.626 78.0688Z" fill="white"/>
<path d="M351.725 92.113C351.725 94.2334 350.006 95.9544 347.886 95.9544C345.765 95.9544 344.048 94.2334 344.048 92.113C344.048 89.9906 345.765 88.2715 347.886 88.2715C350.006 88.2715 351.725 89.9906 351.725 92.113Z" fill="white"/>
<path d="M313.573 120.81C313.573 122.139 312.495 123.216 311.168 123.216C309.84 123.216 308.762 122.139 308.762 120.81C308.762 119.48 309.839 118.402 311.168 118.402C312.495 118.402 313.573 119.48 313.573 120.81Z" fill="white"/>
<path d="M110.287 238.522C120.083 235.778 130.25 241.501 132.995 251.302C135.409 259.92 131.281 268.822 123.589 272.712L126.92 284.606C127.3 285.959 126.504 287.375 125.152 287.753L123.153 288.313C121.801 288.691 120.386 287.895 120.007 286.542L116.676 274.647C108.083 275.318 99.9322 269.855 97.5186 261.236C94.7737 251.435 100.49 241.265 110.287 238.522ZM112.173 245.257C106.094 246.959 102.546 253.27 104.25 259.351C105.953 265.434 112.262 268.985 118.341 267.282C124.42 265.58 127.967 259.27 126.264 253.187C124.56 247.105 118.251 243.555 112.173 245.257Z" fill="#686E82"/>
<path d="M275.149 543.031L183.898 583.609C181.537 583.829 179.054 583.68 176.329 582.64C167.757 579.291 164.096 575.892 164.096 575.916C164.201 576.11 183.664 573.331 179.774 570.428C176.108 567.762 161.469 574.385 155.121 571.035C148.849 567.859 139.888 560.917 139.918 560.889C139.95 561.039 156.276 563.408 154.27 559.599C152.397 556.078 134.965 556.155 128.974 551.312C123.144 546.802 143.747 550.465 144.53 547.741C145.431 545.496 123.783 542.08 118.075 538.111C112.34 534.483 107.329 524.711 110.688 525.842C114.008 526.964 119.416 528.743 118.382 526.419C117.309 524.297 101.081 514.776 99.098 510.066C97.0725 505.717 113.383 513.366 113.451 511.343C113.535 509.724 94.8085 502.645 90.2553 495.66C85.6783 488.96 83.9173 482.198 84.612 482.028C85.2804 481.928 95.4819 488.894 96.6763 487.858C97.7406 487.12 74.7294 443.588 91.677 424.568C114.358 428.142 143.573 450.329 143.645 450.277C144.749 449.326 142.351 439.855 142.849 439.304C143.287 438.761 148.119 441.166 152.319 445.272C156.292 449.354 158.881 465.196 160.701 464.984C162.187 464.707 158.681 451.117 162.172 452.62C165.379 454.114 171.285 466.616 173.352 466.986C175.262 467.383 174.112 463.136 173.598 460.53C173.099 457.959 180.562 460.297 183.241 463.937C185.647 467.618 189.957 484.347 192.103 482.651C193.819 480.908 189.868 465.534 193.867 468.627C197.542 471.621 199.729 485.448 203.133 485.198C206.253 484.897 201.985 473.391 202.113 473.397C202.106 473.423 208.416 477.149 211.988 479.986C215.38 482.803 214.638 497.298 218.052 498.326C221.157 499.267 217.243 483.774 217.446 483.795C217.463 483.788 220.629 484.533 225.421 488.177C230.217 491.766 228.852 499.649 233.395 503.145C237.961 506.569 239.453 497.21 239.469 497.23C263.286 511.639 272.152 529.853 275.149 543.031Z" fill="#333944"/>
<path d="M323.452 590.739C427.005 590.739 511.463 584.931 511.463 577.811C511.463 570.691 427.005 564.884 323.452 564.884C219.9 564.884 135.442 570.691 135.442 577.811C135.442 584.931 219.9 590.739 323.452 590.739Z" fill="white"/>
<path d="M351.476 574.088H464.957C467.511 573.227 470.02 571.927 472.371 569.588C479.727 562.15 481.961 556.929 481.973 556.955C481.953 557.204 460.458 563.306 463.16 558.494C465.737 554.033 483.994 554.15 489.041 547.74C494.091 541.544 500.194 530.194 500.15 530.18C500.185 530.35 484.324 540.351 484.65 535.468C484.97 530.947 503.109 522.975 507.097 515.178C511.072 507.802 491.366 521.121 489.296 518.653C487.323 516.738 508.228 503.192 512.327 496.434C516.609 490.018 517.305 477.551 514.337 480.278C511.408 482.977 506.613 487.322 506.614 484.431C506.75 481.732 519.211 464.347 519.097 458.539C519.195 453.088 505.785 468.564 504.78 466.495C503.946 464.853 520.128 448.852 521.635 439.493C523.298 430.42 522.007 422.583 521.207 422.727C520.466 422.933 513.086 434.879 511.367 434.355C509.922 434.079 513.739 378.238 487.364 366.31C465.46 380.498 445.354 417.036 445.254 417.015C443.671 416.537 441.791 405.592 441.021 405.25C440.315 404.888 436.406 409.618 433.939 415.823C431.696 421.897 436.315 439.548 434.328 440.168C432.657 440.567 430.028 424.832 427.097 428.005C424.455 431.039 424.089 446.751 422.113 448.09C420.313 449.385 419.548 444.442 418.879 441.498C418.211 438.598 411.54 444.472 410.436 449.49C409.636 454.425 412.877 473.791 409.866 473.021C407.279 472.003 404.291 454.21 401.565 459.27C399.129 464.076 403.237 479.448 399.587 480.761C396.208 481.889 395.332 467.968 395.201 468.032C395.222 468.056 390.387 474.841 387.987 479.436C385.764 483.929 393.22 498.641 390.149 501.285C387.358 503.697 384.275 485.798 384.074 485.913C384.054 485.914 381.111 488.151 377.815 494.149C374.49 500.09 379.543 507.648 376.437 513.377C373.275 519.043 367.41 510.011 367.402 510.039C349.315 536.005 348.509 559.018 351.476 574.088Z" fill="#7D8DA9"/>
<path d="M143.305 365.087C154.361 376.478 163.318 390.348 171.206 404.023C185.384 428.588 195.33 455.427 200.71 483.205L202.046 482.65C196.699 455.372 186.946 429.095 173.252 404.742C165.232 390.478 155.896 376.012 144.434 364.206C143.799 363.551 142.66 364.426 143.305 365.087Z" fill="white"/>
<path d="M201.689 482.76C201.689 482.76 203.486 469.329 224.385 459.47C224.385 459.47 219.098 476.231 201.689 482.76Z" fill="white"/>
<path d="M199.568 472.673C199.568 472.673 201.969 457.855 226.239 446.491C226.239 446.491 219.741 465.058 199.568 472.673Z" fill="white"/>
<path d="M197.55 464.743C197.55 464.743 197.804 449.735 220.197 435.01C220.197 435.01 216.425 454.316 197.55 464.743Z" fill="white"/>
<path d="M193.952 456.075C193.952 456.075 192.637 441.125 213.373 424.14C213.373 424.14 211.637 443.734 193.952 456.075Z" fill="white"/>
<path d="M190.192 444.234C190.192 444.234 189.064 426.965 213.87 406.733C213.87 406.732 211.29 429.458 190.192 444.234Z" fill="white"/>
<path d="M185.294 432.437C185.294 432.437 184.103 414.501 209.83 393.513C209.83 393.513 207.176 417.114 185.294 432.437Z" fill="white"/>
<path d="M181.927 422.526C181.927 422.526 177.9 405.009 199.961 380.194C199.961 380.194 201.096 403.915 181.927 422.526Z" fill="white"/>
<path d="M175.761 409.87C175.761 409.87 170.076 394.688 186.849 369.878C186.849 369.878 190.686 390.951 175.761 409.87Z" fill="white"/>
<path d="M168.135 397.937C168.135 397.937 163.602 384.206 179.54 360.805C179.54 360.805 182.2 380.015 168.135 397.937Z" fill="white"/>
<path d="M161.174 386.145C161.174 386.145 157.943 374.498 172.229 353.687C172.229 353.687 173.67 370.127 161.174 386.145Z" fill="white"/>
<path d="M156.094 380.072C156.094 380.072 151.871 370.495 161.084 349C161.084 349 164.44 363.202 156.094 380.072Z" fill="white"/>
<path d="M150.043 371.348C150.043 371.348 145.531 363.534 152.322 347.344C152.322 347.343 156.382 358.722 150.043 371.348Z" fill="white"/>
<path d="M145.657 366.175C145.657 366.175 134.187 364.736 131.459 348.697C131.459 348.697 144.595 353.376 145.657 366.175Z" fill="white"/>
<path d="M126.023 365.547C126.023 365.547 134.276 361.911 149.625 370.418C149.625 370.418 137.879 373.22 126.023 365.547Z" fill="white"/>
<path d="M201.697 481.833C201.697 481.833 190.918 473.628 169.187 481.485C169.187 481.485 184.787 489.565 201.697 481.833Z" fill="white"/>
<path d="M197.271 464.858C197.271 464.858 186.465 454.449 160.237 459.928C160.237 459.928 176.567 470.878 197.271 464.858Z" fill="white"/>
<path d="M194.502 455.162C194.502 455.162 184.842 443.679 158.188 446.388C158.188 446.388 173.284 458.984 194.502 455.162Z" fill="white"/>
<path d="M190.554 443.55C190.554 443.55 179.123 430.566 147.291 433.869C147.291 433.869 165.203 448.077 190.554 443.55Z" fill="white"/>
<path d="M185.606 431.38C185.606 431.38 173.746 417.881 140.732 421.305C140.732 421.305 159.313 436.077 185.606 431.38Z" fill="white"/>
<path d="M181.383 421.828C181.383 421.828 171.82 406.611 138.684 404.736C138.684 404.736 154.679 422.279 181.383 421.828Z" fill="white"/>
<path d="M175.018 408.848C175.018 408.848 166.651 394.966 136.802 392.718C136.802 392.718 150.931 408.807 175.018 408.848Z" fill="white"/>
<path d="M167.532 396.475C167.531 396.475 161.005 383.572 133.191 378.353C133.191 378.353 144.915 393.795 167.532 396.475Z" fill="white"/>
<path d="M155.905 379.611C155.905 379.611 149.078 371.679 125.72 370.758C125.72 370.758 137.095 379.894 155.905 379.611Z" fill="white"/>
<path d="M199.865 472.55C199.865 472.55 187.678 463.795 162.506 472.977C162.506 472.977 180.237 481.474 199.865 472.55Z" fill="white"/>
<path d="M276.192 572.667L176.403 576.325C174.13 575.649 171.882 574.586 169.739 572.607C163.032 566.304 160.9 561.785 160.89 561.808C160.916 562.026 180.013 566.698 177.482 562.555C175.073 558.716 159.023 559.407 154.378 553.933C149.739 548.647 144.007 538.865 144.046 538.851C144.02 539.002 158.289 547.284 157.845 543.001C157.418 539.036 141.213 532.611 137.455 525.883C133.723 519.526 151.479 530.603 153.22 528.366C154.892 526.618 136.074 515.382 132.254 509.572C128.282 504.068 127.27 493.13 129.966 495.431C132.629 497.71 136.985 501.376 136.891 498.834C136.686 496.465 125.169 481.58 125.082 476.47C124.821 471.68 137.111 484.856 137.928 483.004C138.609 481.533 123.865 467.986 122.239 459.805C120.486 451.881 121.368 444.95 122.077 445.05C122.734 445.207 129.608 455.473 131.102 454.956C132.365 454.668 127.215 405.691 150.022 394.353C169.74 406.122 188.595 437.6 188.681 437.578C190.058 437.107 191.359 427.423 192.026 427.098C192.635 426.757 196.224 430.79 198.592 436.166C200.76 441.434 197.266 457.103 199.034 457.584C200.515 457.881 202.321 443.961 205.001 446.657C207.421 449.239 208.248 463.042 210.028 464.157C211.653 465.237 212.167 460.866 212.66 458.256C213.155 455.683 219.21 460.635 220.341 465.011C221.204 469.324 218.977 486.456 221.6 485.683C223.841 484.705 225.897 468.963 228.457 473.324C230.753 477.471 227.634 491.12 230.887 492.157C233.894 493.039 234.217 480.771 234.335 480.823C234.317 480.845 238.786 486.655 241.045 490.618C243.144 494.496 237.06 507.673 239.845 509.899C242.377 511.93 244.512 496.092 244.693 496.187C244.711 496.187 247.371 498.059 250.462 503.226C253.577 508.343 249.375 515.152 252.291 520.089C255.253 524.968 260.121 516.838 260.129 516.862C276.868 539.11 278.316 559.319 276.192 572.667Z" fill="#7D8DA9"/>
<path d="M502.661 340.906C492.763 353.32 485.197 367.998 478.673 382.376C466.95 408.208 459.658 435.89 457.002 464.059L455.619 463.637C458.291 435.967 465.444 408.865 476.707 383.292C483.304 368.313 491.191 353.007 501.452 340.139C502.02 339.425 503.238 340.184 502.661 340.906Z" fill="white"/>
<path d="M455.992 463.707C455.992 463.707 452.898 450.515 431.14 442.74C431.14 442.74 438.031 458.906 455.992 463.707Z" fill="white"/>
<path d="M457.121 453.462C457.121 453.462 453.292 438.948 428.033 430.004C428.033 430.004 436.304 447.849 457.121 453.462Z" fill="white"/>
<path d="M458.358 445.372C458.358 445.372 456.646 430.461 432.928 417.988C432.928 417.988 438.559 436.835 458.358 445.372Z" fill="white"/>
<path d="M461.095 436.397C461.095 436.397 460.951 421.388 438.664 406.505C438.664 406.505 442.296 425.838 461.095 436.397Z" fill="white"/>
<path d="M463.686 424.245C463.686 424.245 463.131 406.948 436.476 389.229C436.476 389.229 441.252 411.597 463.686 424.245Z" fill="white"/>
<path d="M467.413 412.027C467.413 412.027 466.856 394.059 439.211 375.679C439.211 375.679 444.145 398.909 467.413 412.027Z" fill="white"/>
<path d="M469.8 401.835C469.8 401.835 472.107 384.008 447.739 361.462C447.739 361.462 448.913 385.181 469.8 401.835Z" fill="white"/>
<path d="M474.705 388.638C474.705 388.638 478.887 372.975 459.783 349.917C459.783 349.917 458.013 371.264 474.705 388.638Z" fill="white"/>
<path d="M481.135 376.021C481.135 376.021 484.311 361.914 466.176 340.177C466.176 340.177 465.396 359.554 481.135 376.021Z" fill="white"/>
<path d="M486.915 363.605C486.915 363.605 489 351.699 472.759 332.38C472.759 332.38 472.922 348.882 486.915 363.605Z" fill="white"/>
<path d="M491.381 357.068C491.381 357.068 494.653 347.124 483.394 326.63C483.394 326.629 481.435 341.091 491.381 357.068Z" fill="white"/>
<path d="M496.556 347.796C496.556 347.796 500.287 339.58 491.954 324.127C491.953 324.127 489.018 335.847 496.556 347.796Z" fill="white"/>
<path d="M500.418 342.222C500.418 342.222 511.692 339.671 512.849 323.442C512.849 323.442 500.23 329.379 500.418 342.222Z" fill="white"/>
<path d="M519.898 339.684C519.898 339.684 511.33 336.869 496.881 346.832C496.881 346.832 508.844 348.477 519.898 339.684Z" fill="white"/>
<path d="M455.894 462.787C455.894 462.787 465.824 453.571 488.216 459.273C488.216 459.273 473.476 468.834 455.894 462.787Z" fill="white"/>
<path d="M458.648 445.463C458.648 445.463 468.39 434.051 495.025 436.948C495.025 436.948 479.837 449.436 458.648 445.463Z" fill="white"/>
<path d="M460.46 435.543C460.46 435.543 468.959 423.172 495.75 423.271C495.75 423.271 481.948 437.28 460.46 435.543Z" fill="white"/>
<path d="M463.259 423.602C463.259 423.602 473.376 409.565 505.376 409.75C505.376 409.75 488.93 425.637 463.259 423.602Z" fill="white"/>
<path d="M467 411.009C467 411.009 477.492 396.418 510.682 396.608C510.682 396.608 493.624 413.121 467 411.009Z" fill="white"/>
<path d="M470.275 401.09C470.275 401.09 478.314 385.013 511.11 379.918C511.11 379.918 496.896 398.937 470.275 401.09Z" fill="white"/>
<path d="M475.347 387.552C475.347 387.552 482.323 372.921 511.813 367.774C511.813 367.774 499.315 385.164 475.347 387.552Z" fill="white"/>
<path d="M481.594 374.509C481.594 374.508 486.836 361.032 514.011 353.126C514.011 353.126 503.843 369.636 481.594 374.509Z" fill="white"/>
<path d="M491.525 356.591C491.525 356.591 497.549 348.032 520.706 344.839C520.706 344.839 510.274 355.041 491.525 356.591Z" fill="white"/>
<path d="M456.814 453.371C456.814 453.371 468.092 443.471 494.038 450.155C494.038 450.155 477.217 460.339 456.814 453.371Z" fill="white"/>
<path d="M355.929 539.136L463.394 575.617C466.089 575.623 468.883 575.196 471.86 573.739C481.215 569.061 485.008 564.835 485.011 564.863C484.912 565.092 462.597 563.96 466.702 560.273C470.574 556.877 487.827 562.856 494.665 558.409C501.437 554.165 510.863 545.38 510.825 545.352C510.804 545.525 492.571 549.896 494.449 545.377C496.205 541.198 515.942 539.481 522.223 533.378C528.356 527.672 505.417 533.95 504.249 530.948C502.997 528.501 527.145 522.394 533.197 517.311C539.313 512.612 543.976 501.032 540.292 502.659C536.649 504.273 530.713 506.846 531.643 504.109C532.638 501.597 550.023 489.141 551.781 483.605C553.625 478.474 535.954 488.818 535.667 486.535C535.405 484.712 555.87 474.762 560.303 466.385C564.791 458.328 566.087 450.492 565.283 450.371C564.515 450.328 553.689 459.268 552.23 458.219C550.949 457.493 572.501 405.842 551.358 386.069C526.056 392.462 495.28 420.598 495.194 420.545C493.846 419.584 495.583 408.616 494.963 408.044C494.41 407.474 489.19 410.696 484.86 415.779C480.785 420.809 479.489 439.008 477.408 438.956C475.698 438.797 478.263 423.052 474.467 425.115C470.991 427.139 465.598 441.899 463.297 442.532C461.176 443.179 462.038 438.253 462.351 435.25C462.65 432.289 454.445 435.707 451.789 440.104C449.446 444.519 446.293 463.899 443.689 462.203C441.567 460.407 444.453 442.598 440.246 446.512C436.396 450.281 435.348 466.157 431.469 466.227C427.908 466.209 431.55 452.745 431.405 452.764C431.416 452.793 424.659 457.664 420.91 461.244C417.362 464.784 419.696 481.112 415.939 482.629C412.521 484.015 415.351 466.074 415.124 466.119C415.104 466.113 411.599 467.286 406.551 471.905C401.493 476.463 403.852 485.245 399.071 489.671C394.256 494.018 391.602 483.581 391.586 483.605C366.117 502.379 357.962 523.91 355.929 539.136Z" fill="#333944"/>
<path d="M267.707 338.531H312.415C322.971 338.531 331.606 347.172 331.606 357.734V396.769C331.606 407.33 322.971 415.972 312.415 415.972H267.707C257.151 415.972 248.515 407.33 248.515 396.769V357.734C248.515 347.172 257.151 338.531 267.707 338.531Z" fill="#686E82"/>
<path d="M268.611 355.287H311.51C314.908 355.287 317.687 358.069 317.687 361.467V393.037C317.687 396.436 314.908 399.215 311.51 399.215H268.611C265.213 399.215 262.434 396.436 262.434 393.037V361.467C262.434 358.069 265.213 355.287 268.611 355.287Z" fill="white"/>
<path d="M290.061 380.109L266.964 359.816L290.061 374.494L313.158 359.816L290.061 380.109Z" fill="#686E82"/>
<path d="M436.478 178.561V541.736C436.478 559.608 422.006 574.089 404.144 574.089H244.517C226.655 574.089 212.183 559.608 212.183 541.736L212.184 178.561C212.184 160.707 226.655 146.21 244.517 146.21H404.144C422.006 146.21 436.478 160.707 436.478 178.561Z" fill="#333944"/>
<path d="M427.708 178.561C427.708 165.542 417.156 154.984 404.145 154.984L244.518 154.985C231.505 154.985 220.955 165.542 220.955 178.561L220.954 541.736C220.954 554.764 231.497 565.313 244.518 565.313H404.145C417.166 565.313 427.708 554.764 427.708 541.736V178.561Z" fill="white"/>
<path d="M438.358 298.081H436.479V212.392H438.358C440.699 212.392 442.594 214.291 442.594 216.634L442.595 293.839C442.595 296.182 440.699 298.081 438.358 298.081Z" fill="#686E82"/>
<path d="M212.184 252.614H210.438C208.262 252.614 206.497 250.849 206.497 248.671V214.878C206.497 212.7 208.262 210.935 210.438 210.935L212.184 210.935V252.614Z" fill="#686E82"/>
<path d="M212.184 298.081H210.661C208.764 298.081 207.226 296.542 207.226 294.644V275.871C207.226 273.972 208.764 272.432 210.661 272.432H212.184V298.081Z" fill="#686E82"/>
<path d="M271.394 146.208H377.414V161.441C377.414 169.818 370.565 176.672 362.192 176.672H286.617C278.244 176.672 271.394 169.818 271.394 161.441V146.208Z" fill="#333944"/>
<path d="M301.775 161.44C301.775 163.474 300.127 165.124 298.094 165.124C296.059 165.124 294.412 163.474 294.412 161.44C294.412 159.405 296.059 157.756 298.094 157.756C300.127 157.756 301.775 159.405 301.775 161.44Z" fill="#B2B8CA"/>
<path d="M352.525 164.142H306.902C305.869 164.142 305.031 163.304 305.031 162.271V160.61C305.031 159.577 305.869 158.74 306.902 158.74H352.525C353.558 158.74 354.395 159.577 354.395 160.61V162.271C354.395 163.304 353.558 164.142 352.525 164.142Z" fill="#B2B8CA"/>
<path d="M363.249 216.948H216.586C214.77 216.948 213.284 218.435 213.284 220.251V220.253C213.284 222.07 214.77 223.556 216.586 223.556H363.249C365.066 223.556 366.551 222.07 366.551 220.253V220.251C366.551 218.435 365.066 216.948 363.249 216.948Z" fill="#686E82"/>
<path d="M245.689 216.948H243.917C242.101 216.948 240.615 218.435 240.615 220.251V220.253C240.615 222.07 242.101 223.556 243.917 223.556H245.689C247.505 223.556 248.991 222.07 248.991 220.253V220.251C248.991 218.435 247.505 216.948 245.689 216.948Z" fill="#686E82"/>
<path d="M380.906 235.449H234.244C232.427 235.449 230.942 236.935 230.942 238.752V238.753C230.942 240.571 232.427 242.057 234.244 242.057H380.906C382.723 242.057 384.209 240.571 384.209 238.753V238.752C384.209 236.935 382.723 235.449 380.906 235.449Z" fill="#686E82"/>
<path d="M245.689 235.449H243.917C242.101 235.449 240.615 236.935 240.615 238.752V238.753C240.615 240.571 242.101 242.057 243.917 242.057H245.689C247.505 242.057 248.991 240.571 248.991 238.753V238.752C248.991 236.935 247.505 235.449 245.689 235.449Z" fill="#686E82"/>
<path d="M392.769 253.949H246.106C244.29 253.949 242.804 255.437 242.804 257.254V257.255C242.804 259.072 244.29 260.559 246.106 260.559H392.769C394.586 260.559 396.071 259.072 396.071 257.255V257.254C396.071 255.437 394.586 253.949 392.769 253.949Z" fill="#686E82"/>
<path d="M245.689 253.949H243.917C242.101 253.949 240.615 255.437 240.615 257.254V257.255C240.615 259.072 242.101 260.559 243.917 260.559H245.689C247.505 260.559 248.991 259.072 248.991 257.255V257.254C248.991 255.437 247.505 253.949 245.689 253.949Z" fill="#686E82"/>
<path d="M377.891 521.135H231.228C229.412 521.135 227.926 522.621 227.926 524.438V524.439C227.926 526.256 229.412 527.743 231.228 527.743H377.891C379.708 527.743 381.193 526.256 381.193 524.439V524.438C381.193 522.621 379.708 521.135 377.891 521.135Z" fill="#686E82"/>
<path d="M245.689 521.135H243.917C242.101 521.135 240.615 522.621 240.615 524.438V524.439C240.615 526.256 242.101 527.743 243.917 527.743H245.689C247.505 527.743 248.991 526.256 248.991 524.439V524.438C248.991 522.621 247.505 521.135 245.689 521.135Z" fill="#686E82"/>
<path d="M383.693 539.635H237.03C235.214 539.635 233.728 541.121 233.728 542.938V542.939C233.728 544.756 235.214 546.243 237.03 546.243H383.693C385.51 546.243 386.995 544.756 386.995 542.939V542.938C386.995 541.121 385.51 539.635 383.693 539.635Z" fill="#686E82"/>
<path d="M245.689 539.635H243.917C242.101 539.635 240.615 541.121 240.615 542.938V542.939C240.615 544.756 242.101 546.243 243.917 546.243H245.689C247.505 546.243 248.991 544.756 248.991 542.939V542.938C248.991 541.121 247.505 539.635 245.689 539.635Z" fill="#686E82"/>
<path d="M322.645 506.98C357.231 506.98 385.44 502.012 385.44 495.922C385.44 489.831 357.231 484.864 322.645 484.864C288.059 484.864 259.849 489.831 259.849 495.922C259.849 502.012 288.059 506.98 322.645 506.98Z" fill="#262D3F"/>
<path d="M313.198 354.804L286.305 358.624C283.154 354.139 245.897 374.953 281.03 390.149C282.143 424.894 284.021 462.458 283.177 496.603C307.981 502.081 333.127 502.759 358.627 498.466C355.733 463.777 356.426 433.395 359.63 399.783C407.655 393.902 355.185 370.914 336.353 353.519L313.198 354.804Z" fill="#686E82"/>
<path d="M312.827 341.513H336.353V353.519C342.892 359.92 339.464 364.835 330.13 364.348C322.181 363.933 312.827 361.169 312.827 351.743V341.513Z" fill="#ECCBB3"/>
<path d="M312.827 341.513H336.353V347.517L316.462 359.992C314.252 358.086 312.827 355.422 312.827 351.743V341.513Z" fill="#F3B897"/>
<path d="M336.509 292.748L311.667 343.569L312.799 348.527C301.71 337.488 291.964 336.521 285.67 323.789C277.383 307.022 279.337 291.113 294.056 282.833C298.409 280.386 304.45 282.76 308.452 279.661C318.746 271.689 324.059 273.222 325.764 277.299C328.597 284.073 338.628 272.027 343.205 278.13C347.729 284.158 344.508 290.194 336.509 292.748Z" fill="#B2B8CA"/>
<path d="M314.94 299.399C322.841 299.158 330.043 296.976 336.509 292.751C351.131 310.019 356.055 336.909 336.664 345.484C325.936 350.227 310.145 348.464 306.062 335.173C297.951 335.71 292.263 323.356 295.969 319.275C299.862 314.987 304.052 321.091 305.405 324.797L307.265 323.891L304.49 313.758C309.745 310.234 313.174 305.409 314.94 299.399Z" fill="#ECCBB3"/>
<path d="M314.941 299.398C322.842 299.157 330.044 296.974 336.51 292.75C331.817 299.393 325.547 304.298 316.919 306.61C310.104 324.022 317.902 342.028 339.838 343.781C338.862 344.407 337.807 344.978 336.665 345.483C325.937 350.227 310.146 348.464 306.062 335.172C297.951 335.709 292.263 323.356 295.969 319.275C299.862 314.986 304.052 321.09 305.405 324.796L307.266 323.89L304.491 313.757C309.746 310.233 313.174 305.408 314.941 299.398Z" fill="#F3B897"/>
<path d="M207.829 282.649C211.661 281.057 216.69 285.144 219.125 291.793C221.205 292.395 222.435 295.632 221.909 299.386C221.475 302.496 219.962 305.052 218.206 305.965C217.726 306.472 217.172 306.866 216.548 307.126C212.68 308.733 207.593 304.556 205.185 297.797C202.776 291.038 203.96 284.257 207.829 282.649Z" fill="#ECCBB3"/>
<path d="M287.284 358.915C252.893 361.443 230.328 338.412 221.423 302.761C218.041 305.507 214.185 306.51 209.829 305.664C212.249 350.284 235.97 377.459 279.894 390.009C291.452 388.639 287.284 358.915 287.284 358.915Z" fill="#686E82"/>
<path d="M216.258 239.011L227.287 258.769C235.127 272.812 230.076 290.651 216.039 298.49C202.004 306.33 184.169 301.274 176.329 287.23L165.3 267.473L177.403 260.715L188.432 280.471C192.541 287.832 201.923 290.492 209.28 286.382C216.637 282.273 219.294 272.889 215.186 265.527L204.156 245.772L216.258 239.011Z" fill="#686E82"/>
<path d="M209.016 226.027L196.913 232.786L204.384 246.17L216.487 239.409L209.016 226.027Z" fill="#B2B8CA"/>
<path d="M158.058 254.495L165.529 267.879L177.631 261.118L170.161 247.736L158.058 254.495Z" fill="#B2B8CA"/>
<path d="M412.257 313.98C408.155 313.354 404.25 318.528 403.479 325.566C401.602 326.649 401.184 330.089 402.594 333.607C403.761 336.522 405.841 338.638 407.764 339.104C408.352 339.481 408.984 339.731 409.653 339.833C413.794 340.464 417.732 335.189 418.452 328.05C419.172 320.912 416.398 314.612 412.257 313.98Z" fill="#ECCBB3"/>
<path d="M365.878 396.639C380.364 404.134 404.752 410.883 411.436 407.307C423.249 400.988 419.89 367.313 414.742 337.594C409.938 338.674 405.921 337.255 402.604 333.608C402.807 351.063 401.367 366.118 399.942 383.009C372.462 375.392 341.641 363.986 339.897 370.416C339.897 370.416 339.343 383.31 365.878 396.639Z" fill="#686E82"/>
<path d="M94.7733 176.045H183.914C194.626 176.045 203.31 167.565 203.31 157.105C203.31 146.645 194.626 138.165 183.914 138.165C179.99 138.165 176.338 139.304 173.286 141.26C173.69 139.727 173.906 138.117 173.906 136.457C173.906 126.082 165.501 117.672 155.132 117.672C150.067 117.672 145.47 119.68 142.093 122.943C140.654 115.947 134.465 110.686 127.047 110.686C118.564 110.686 111.686 117.567 111.686 126.056C111.686 128.278 112.159 130.39 113.007 132.297C112.699 132.276 112.388 132.266 112.074 132.266C104.49 132.266 98.3419 138.416 98.3419 146.004C98.3419 147.396 98.5493 148.74 98.9337 150.005C97.6247 149.576 96.2264 149.343 94.7733 149.343C87.4033 149.343 81.4297 155.321 81.4297 162.694C81.4297 170.068 87.4033 176.045 94.7733 176.045Z" fill="#686E82"/>
<path d="M99.2555 480.566H118.16L122.997 472.527C123.663 471.42 124.206 470.172 126.647 470.172H136.065H145.483C147.924 470.172 148.466 471.42 149.132 472.527L153.969 480.566H172.874C176.725 480.566 179.875 483.718 179.875 487.57V535.472C179.875 539.325 176.725 542.476 172.874 542.476H99.2555C95.405 542.476 92.2549 539.325 92.2549 535.472V487.57C92.2549 483.718 95.405 480.566 99.2555 480.566Z" fill="#686E82"/>
<path d="M136.065 531.786C145.695 531.786 153.55 523.927 153.55 514.29C153.55 504.655 145.695 496.796 136.065 496.796C126.435 496.796 118.579 504.655 118.579 514.29C118.579 523.927 126.435 531.786 136.065 531.786Z" fill="white"/>
<path d="M451.968 220.004C470.644 221.595 487.171 207.655 488.758 188.971C490.345 170.287 476.408 153.752 457.731 152.161C439.054 150.57 422.528 164.51 420.941 183.194C419.353 201.878 433.291 218.413 451.968 220.004Z" fill="#686E82"/>
<path d="M462.251 175.172L446.571 180.755C446.355 180.613 446.121 180.36 445.901 180.188C441.723 176.929 435.452 179.754 435.412 185.316C435.383 189.515 439.347 192.466 443.216 191.659C443.83 191.532 444.414 191.309 444.92 191.046C445.203 190.898 445.413 190.765 445.65 190.596C445.838 190.463 446.197 190.132 446.377 190.058C446.787 190.267 447.28 190.639 447.705 190.927C451.608 193.569 455.724 196.222 459.629 198.828C460.525 199.426 460.177 199.097 460.384 200.168C461.461 205.758 468.6 207.28 471.909 202.913C475.004 198.826 472.443 193.069 467.506 192.511C466.168 192.36 464.964 192.616 463.983 193.087C463.46 193.338 463.098 193.585 462.7 193.897C462.048 194.406 461.981 194.645 461.605 194.994C461.323 194.917 452.317 188.881 451.666 188.441L448.34 186.251L448.401 184.628C450.915 183.73 453.396 182.833 455.953 181.938C456.417 181.776 463.238 179.304 463.541 179.286C464.416 180.314 465.269 181.152 467.005 181.664C468.746 182.177 470.464 181.839 471.749 181.181C472.891 180.596 473.946 179.607 474.613 178.238C475.317 176.795 475.459 174.864 474.922 173.355C473.222 168.578 467.346 167.48 464.04 170.954C463.282 171.752 462.766 172.695 462.464 173.808C462.334 174.29 462.35 174.712 462.251 175.172Z" fill="white"/>
<path d="M410.69 527.459H514.681C521.964 527.459 527.922 521.497 527.922 514.211V451.035C527.922 443.748 521.964 437.787 514.681 437.787H410.69C403.407 437.787 397.45 443.748 397.45 451.035V514.211C397.45 521.497 403.407 527.459 410.69 527.459Z" fill="#686E82"/>
<path d="M445.112 466.139L480.26 482.624L445.112 499.109V466.139Z" fill="white"/>
<path d="M401.648 320.127L409.376 315.546L416.837 328.151C417.427 329.146 417.095 330.443 416.099 331.033L411.991 333.468C410.995 334.058 409.699 333.726 409.109 332.73L401.648 320.127Z" fill="black"/>
<path d="M384.363 294.555C402.432 285.488 416.85 275.201 422.119 260.406L454.338 296.745L446.667 315.975C425.308 310.546 412.602 315.391 396.709 322.203C389.128 325.451 380.383 322.424 377.021 314.893C375.839 312.246 375.486 309.405 375.842 306.672L375.843 306.665C375.857 306.563 375.871 306.462 375.886 306.361L375.892 306.323C375.988 305.691 376.124 305.066 376.295 304.451L376.297 304.445C376.323 304.351 376.35 304.258 376.378 304.165L376.393 304.113C376.42 304.025 376.448 303.937 376.476 303.85L376.492 303.799C376.522 303.707 376.553 303.615 376.585 303.523L376.59 303.509C376.623 303.412 376.657 303.317 376.692 303.222L376.708 303.175C376.85 302.793 377.006 302.417 377.177 302.047L377.194 302.007L377.298 301.788L377.349 301.684L377.444 301.496L377.507 301.37L377.602 301.191L377.664 301.075L377.765 300.89L377.832 300.774C377.867 300.712 377.903 300.65 377.939 300.589L377.99 300.504C378.03 300.437 378.071 300.369 378.112 300.302C378.169 300.209 378.228 300.117 378.286 300.027L378.399 299.856L378.478 299.737L378.588 299.579L378.676 299.452L378.792 299.292L378.877 299.176L378.998 299.016L379.096 298.89L379.2 298.756L379.332 298.594L379.418 298.489C379.465 298.432 379.513 298.376 379.561 298.321L379.651 298.215C379.7 298.157 379.751 298.101 379.802 298.045L379.877 297.961L379.879 297.958L379.945 297.888C380.003 297.826 380.061 297.763 380.12 297.7L380.199 297.619L380.361 297.454L380.466 297.351L380.618 297.202L380.723 297.103L380.872 296.964L380.986 296.86C381.038 296.813 381.091 296.767 381.144 296.721L381.252 296.627C381.312 296.576 381.372 296.525 381.432 296.475L381.519 296.403C381.585 296.348 381.653 296.294 381.721 296.24L381.806 296.173L381.81 296.17C381.897 296.102 381.984 296.035 382.073 295.968L382.078 295.966L382.191 295.883C382.25 295.84 382.31 295.797 382.37 295.753L382.488 295.672C382.547 295.63 382.608 295.588 382.668 295.548L382.794 295.464L382.966 295.352L383.095 295.271L383.291 295.149L383.396 295.086C383.469 295.043 383.541 295.001 383.615 294.958L383.715 294.901C383.787 294.861 383.858 294.821 383.932 294.782L384.041 294.722C384.147 294.666 384.256 294.609 384.363 294.555Z" fill="#262D3F"/>
<path d="M384.362 294.553C402.432 285.485 416.849 275.198 422.118 260.403C421.905 276.727 425.053 291.976 432.077 305.982C419.217 307.306 407.176 311.19 395.602 316.535L379.895 297.938L379.944 297.886C380.002 297.823 380.061 297.761 380.12 297.698L380.199 297.617L380.361 297.451L380.465 297.348L380.618 297.2L380.722 297.101L380.871 296.962L380.986 296.857C381.038 296.811 381.091 296.765 381.143 296.719L381.252 296.625C381.311 296.574 381.371 296.523 381.432 296.473L381.519 296.4C381.585 296.345 381.653 296.292 381.721 296.238L381.805 296.172L381.809 296.168C381.896 296.1 381.984 296.033 382.073 295.966L382.078 295.964L382.191 295.881C382.25 295.838 382.309 295.794 382.369 295.751L382.487 295.669C382.547 295.627 382.607 295.586 382.667 295.546L382.794 295.462L382.965 295.35L383.094 295.269L383.29 295.147L383.396 295.084C383.469 295.041 383.541 294.998 383.615 294.955L383.714 294.899C383.786 294.859 383.858 294.819 383.931 294.779L384.041 294.72C384.147 294.664 384.255 294.607 384.362 294.553Z" fill="#686E82"/>
<path d="M384.367 294.55C385.35 294.058 386.322 293.561 387.282 293.06C388.105 298.38 389.9 304.428 392.645 310.575C394.421 314.552 396.432 318.205 398.555 321.415C397.945 321.673 397.331 321.934 396.716 322.2C389.134 325.448 380.388 322.42 377.026 314.888C373.661 307.357 376.996 298.25 384.367 294.55Z" fill="#686E82"/>
<path d="M432.557 232.06C445.694 226.185 465.899 242.818 477.685 269.21C489.471 295.602 488.375 321.759 475.236 327.634C462.099 333.508 441.894 316.876 430.109 290.484C418.322 264.093 419.419 237.935 432.557 232.06Z" fill="#686E82"/>
<path d="M433.874 235.01C445.383 229.863 463.677 245.766 474.734 270.528C485.793 295.29 485.427 319.536 473.919 324.682C462.41 329.828 444.117 313.927 433.057 289.165C421.999 264.402 422.365 240.156 433.874 235.01Z" fill="#262D3F"/>
<path d="M435.303 238.212C445.738 233.545 462.521 248.404 472.789 271.398C483.058 294.392 482.923 316.816 472.489 321.481C462.054 326.147 445.272 311.289 435.003 288.295C424.735 265.301 424.869 242.878 435.303 238.212Z" fill="#333944"/>
<path d="M456.702 317.694C448.946 312.011 440.903 301.494 435.007 288.293C431.502 280.445 429.211 272.665 428.125 265.633C434.257 263.507 444.581 273.933 451.456 289.328C456.482 300.581 458.301 311.436 456.702 317.694Z" fill="white"/>
<path d="M446.826 279.113L431.774 280.104C432.704 282.806 433.78 285.545 435.007 288.292C436.664 292 438.489 295.495 440.429 298.731L451.725 289.941L446.826 279.113Z" fill="white"/>
<path d="M436.32 291.111L449.276 284.53L451.725 289.943L440.43 298.732C438.989 296.328 437.612 293.781 436.32 291.111Z" fill="#B2B8CA"/>
<path d="M446.825 279.115C448.348 278.435 450.667 280.312 452.006 283.308C453.344 286.306 453.194 289.287 451.672 289.968C450.149 290.649 447.829 288.771 446.491 285.775C445.152 282.777 445.302 279.796 446.825 279.115Z" fill="#262D3F"/>
<path d="M388.658 292.334C389.473 297.678 391.273 303.766 394.036 309.954C395.819 313.942 397.836 317.606 399.965 320.823C399.497 321.019 399.026 321.218 398.553 321.419C396.43 318.208 394.419 314.554 392.642 310.577C389.897 304.429 388.102 298.38 387.279 293.061C387.741 292.819 388.202 292.577 388.658 292.334Z" fill="#B2B8CA"/>
<path d="M493.005 286.7L492.536 291.61L522.478 304.461L524.493 295.881L493.005 286.7Z" fill="#686E82"/>
<path d="M487.895 263.624L490.147 269.249L537.47 261.348L532.581 248.182L487.895 263.624Z" fill="#686E82"/>
<path d="M478.211 243.281L480.431 245.97L506.918 225.338L499.914 217.608L478.211 243.281Z" fill="#686E82"/>
</svg>
