<svg width="1920" height="338" viewBox="0 0 1919 338" fill="none" xmlns="http://www.w3.org/2000/svg">
<path fill-rule="evenodd" clip-rule="evenodd" d="M0 84.3167L40 91.6486C80 98.9805 160 112.911 240 148.104C320 183.297 400 239.753 480 267.614C560 295.475 640 295.475 720 253.683C800 211.158 880 126.842 960 98.9805C1040 70.3861 1120 98.9805 1200 140.772C1280 183.297 1360 239.753 1440 225.089C1520 211.158 1600 126.842 1680 77.718C1760 28.5944 1840 13.9306 1880 7.33189L1920 0V338H1880C1840 338 1760 338 1680 338C1600 338 1520 338 1440 338C1360 338 1280 338 1200 338C1120 338 1040 338 960 338C880 338 800 338 720 338C640 338 560 338 480 338C400 338 320 338 240 338C160 338 80 338 40 338H0V84.3167Z" fill="#866A69"/>
</svg>
